<svg id="Capa_1" enable-background="new 0 0 512 512" height="512" viewBox="0 0 512 512" width="512" xmlns="http://www.w3.org/2000/svg"><g><g><path d="m249.84 471.202h-31.404c-5.523 0-10-4.477-10-10s4.477-10 10-10h31.404c5.523 0 9.999 4.477 9.999 10 .001 5.523-4.476 10-9.999 10z"/><path d="m401.309 134.489h-10.213v-74.595c0-33.026-26.868-59.894-59.894-59.894h-194.127c-33.026 0-59.894 26.868-59.894 59.894v392.213c0 33.025 26.868 59.894 59.894 59.894h194.127c33.025 0 59.894-26.868 59.894-59.894v-127.575h10.213c18.477 0 33.511-15.033 33.511-33.511v-123.021c-.001-18.478-15.034-33.511-33.511-33.511zm-30.213 317.617c0 21.998-17.896 39.894-39.894 39.894h-194.127c-21.998 0-39.894-17.896-39.894-39.894v-21.702h273.915zm0-41.702h-273.915v-323.808h187.702c5.522 0 10-4.477 10-10s-4.478-10-10-10h-187.702v-6.702c0-21.998 17.896-39.894 39.894-39.894h194.127c21.997 0 39.894 17.896 39.894 39.894v74.596h-160.128c-18.478 0-33.511 15.033-33.511 33.511v123.022c0 18.478 15.033 33.511 33.511 33.511h21.638v23.702h-60.638c-5.523 0-10 4.477-10 10s4.477 10 10 10h135.83c5.522 0 10-4.477 10-10s-4.478-10-10-10h-33.266l34.122-23.702h62.441v85.87zm43.723-119.382c0 7.45-6.06 13.511-13.511 13.511h-95.787c-2.039 0-4.03.624-5.705 1.787l-47.21 32.792v-24.58c0-5.523-4.477-10-10-10h-31.638c-7.45 0-13.511-6.061-13.511-13.511v-123.021c0-7.45 6.061-13.511 13.511-13.511h190.34c7.45 0 13.511 6.061 13.511 13.511z"/><g><g><path d="m372.394 201.119h-132.511c-5.523 0-10-4.477-10-10s4.477-10 10-10h132.511c5.522 0 10 4.477 10 10s-4.478 10-10 10z"/></g><g><path d="m372.394 239.799h-132.511c-5.523 0-10-4.477-10-10s4.477-10 10-10h132.511c5.522 0 10 4.477 10 10s-4.478 10-10 10z"/></g><g><path d="m314.947 278.48h-75.065c-5.523 0-10-4.477-10-10s4.477-10 10-10h75.065c5.522 0 10 4.477 10 10s-4.477 10-10 10z"/></g></g><g><path d="m330.27 86.6c-4.181 0-7.995-2.71-9.404-6.635-1.385-3.86-.211-8.344 2.936-10.993 3.286-2.766 8.09-3.14 11.745-.867 3.499 2.175 5.34 6.4 4.534 10.446-.92 4.612-5.105 8.049-9.811 8.049z"/></g></g></g></svg>