<svg width="49" height="49" viewBox="0 0 49 49" fill="none" xmlns="http://www.w3.org/2000/svg">
<rect x="0.308014" y="0.493652" width="48" height="48" rx="10" fill="#EEEEEE"/>
<g clip-path="url(#clip0_213_721)">
<path d="M35.1765 19.7105V29.87C35.1765 29.87 35.1765 29.87 35.1765 29.9206C35.0898 30.4884 34.7819 31.0047 34.3137 31.3676C33.8454 31.7304 33.2509 31.9133 32.6474 31.8802H15.7284C15.5512 31.8982 15.3725 31.8982 15.1952 31.8802C14.621 31.7913 14.1 31.5078 13.7289 31.0824C13.3578 30.657 13.1616 30.1184 13.1765 29.5663C13.1765 26.4281 13.1765 23.297 13.1765 20.166C13.158 19.8436 13.211 19.521 13.3321 19.2193C13.4532 18.9175 13.6397 18.6432 13.8795 18.4142C14.1194 18.1852 14.4072 18.0065 14.7244 17.8898C15.0416 17.773 15.3811 17.7208 15.7209 17.7364H18.5927V17.0495C18.5731 16.7635 18.6173 16.4768 18.7223 16.2081C18.8273 15.9394 18.9908 15.6947 19.2021 15.4901C19.4134 15.2854 19.6678 15.1253 19.9487 15.0202C20.2296 14.9151 20.5307 14.8674 20.8323 14.8802H27.5131C27.7205 14.874 27.928 14.8935 28.1301 14.9381C28.603 15.0498 29.0215 15.3114 29.3165 15.6795C29.6115 16.0477 29.7654 16.5003 29.7527 16.9627V17.6858H30.0345C30.9791 17.6858 31.9237 17.6858 32.8683 17.6858C33.3727 17.7042 33.858 17.8736 34.2548 18.1698C34.6517 18.4659 34.9396 18.8736 35.0775 19.3345C35.1156 19.4791 35.146 19.5948 35.1765 19.7105ZM24.1689 29.8917C25.2314 29.8988 26.2722 29.6067 27.1597 29.0521C28.0472 28.4976 28.7414 27.7057 29.1546 26.7765C29.5678 25.8474 29.6814 24.8227 29.481 23.8323C29.2805 22.8418 28.7751 21.9301 28.0286 21.2124C27.2821 20.4947 26.3281 20.0033 25.2873 19.8004C24.2465 19.5975 23.1658 19.6922 22.1817 20.0725C21.1976 20.4528 20.3545 21.1017 19.7591 21.937C19.1636 22.7723 18.8425 23.7564 18.8365 24.7649C18.8344 26.114 19.3934 27.4094 20.3919 28.3694C21.3904 29.3294 22.7478 29.8765 24.1689 29.8917Z" fill="#BBBBBB"/>
<path d="M27.7188 24.801C27.7173 25.4681 27.5072 26.1197 27.1152 26.6733C26.7232 27.227 26.1669 27.6577 25.5168 27.911C24.8667 28.1643 24.152 28.2287 23.4633 28.0961C22.7745 27.9635 22.1428 27.6399 21.648 27.1661C21.1532 26.6924 20.8177 26.09 20.684 25.4351C20.5502 24.7802 20.6242 24.1024 20.8966 23.4875C21.169 22.8726 21.6276 22.3483 22.2142 21.981C22.8008 21.6137 23.4891 21.4198 24.1918 21.4241C24.657 21.426 25.1172 21.5149 25.5462 21.6856C25.9752 21.8564 26.3645 22.1056 26.692 22.4192C27.0196 22.7328 27.2788 23.1045 27.455 23.5132C27.6311 23.9219 27.7208 24.3595 27.7188 24.801Z" fill="#BBBBBB"/>
</g>
<defs>
<clipPath id="clip0_213_721">
<rect width="22" height="17" fill="white" transform="translate(13.1765 14.8801)"/>
</clipPath>
</defs>
</svg>
