<svg width="1024" height="1024" viewBox="0 0 1024 1024" fill="none" xmlns="http://www.w3.org/2000/svg">
<rect width="1024" height="1024" fill="#28235F"/>
<path d="M872.194 200.121C786.224 111.96 646.523 111.96 559.836 200.121L511.837 249.345L548.374 286.814L596.374 237.59C662.284 169.999 769.747 169.999 835.657 237.59C901.567 305.181 901.567 415.384 835.657 482.974L787.657 532.198L824.194 569.667L872.194 520.443C958.164 432.281 958.164 289.018 872.194 200.121Z" fill="#4FCBC2"/>
<path d="M734.638 379.379C744.668 369.093 744.668 351.461 734.638 341.175C724.608 330.89 707.414 330.89 697.384 341.175L649.385 390.399L686.638 428.602L734.638 379.379Z" fill="#4FCBC2"/>
<path d="M463.836 200.132C377.866 111.97 238.164 111.97 151.478 200.132C65.5075 288.294 65.5075 431.557 151.478 520.454L200.194 569.678L512.552 890L824.194 569.678H718.88V462.414L755.417 499.883L803.417 450.659C851.417 401.435 851.417 320.62 803.417 271.396C755.418 222.173 676.612 222.173 628.612 271.396L580.612 320.62L617.149 358.089H407.239L512.552 250.091L463.836 200.132ZM304.791 462.414V569.678H200.194L304.791 462.414ZM665.149 308.131C693.089 279.478 738.94 279.478 767.597 308.131C795.537 336.783 795.537 383.803 767.597 413.19L719.597 462.414H617.149V357.354L665.149 308.131ZM460.254 569.678V622.575H511.836V569.678H718.88V676.207H615.716V782.736H511.836H460.254V729.839H511.836V676.942H460.254V729.839H408.671V676.942H357.089V624.044H305.507V569.678H357.089V622.575H408.671V569.678H460.254ZM407.239 462.414H304.791L407.239 357.354V462.414Z" fill="#4FCBC2"/>
<path d="M460.248 622.556H408.666V675.453H460.248V622.556Z" fill="#4FCBC2"/>
</svg>
